HIERARCHY
ROOT hip
{
	OFFSET 0.000000 0.000000 0.000000
	CHANNELS 6 Xposition Yposition Zposition Zrotation Yrotation Xrotation 
	JOINT lhipjoint
	{
		OFFSET 0.000000 0.000000 0.000000
		CHANNELS 3 Zrotation Yrotation Xrotation
		JOINT lfemur
		{
			OFFSET 1.363060 -1.794630 0.839290
			CHANNELS 3 Zrotation Yrotation Xrotation
			JOINT ltibia
			{
				OFFSET 2.448110 -6.726130 0.000000
				CHANNELS 3 Zrotation Yrotation Xrotation
				JOINT lfoot
				{
					OFFSET 2.562200 -7.039590 0.000000
					CHANNELS 3 Zrotation Yrotation Xrotation
					JOINT ltoes
					{
						OFFSET 0.157640 -0.433110 2.322550
						CHANNELS 3 Zrotation Yrotation Xrotation
						End Site
						{
							OFFSET 0.000000 0.000000 0.000000
						}
					}
				}
			}
		}
	}
	JOINT rhipjoint
	{
		OFFSET 0.000000 0.000000 0.000000
		CHANNELS 3 Zrotation Yrotation Xrotation
		JOINT rfemur
		{
			OFFSET -1.305520 -1.794630 0.839290
			CHANNELS 3 Zrotation Yrotation Xrotation
			JOINT rtibia
			{
				OFFSET -2.542530 -6.985550 0.000000
				CHANNELS 3 Zrotation Yrotation Xrotation
				JOINT rfoot
				{
					OFFSET -2.568260 -7.056230 0.000000
					CHANNELS 3 Zrotation Yrotation Xrotation
					JOINT rtoes
					{
						OFFSET -0.164730 -0.452590 2.363150
						CHANNELS 3 Zrotation Yrotation Xrotation
						End Site
						{
							OFFSET 0.000000 0.000000 0.000000
						}
					}
				}
			}
		}
	}
	JOINT lowerback
	{
		OFFSET 0.000000 0.000000 0.000000
		CHANNELS 3 Zrotation Yrotation Xrotation
		JOINT upperback
		{
			OFFSET 0.028270 2.035590 -0.193380
			CHANNELS 3 Zrotation Yrotation Xrotation
			JOINT thorax
			{
				OFFSET 0.056720 2.048850 -0.042750
				CHANNELS 3 Zrotation Yrotation Xrotation
				JOINT lowerneck
				{
					OFFSET 0.000000 0.000000 0.000000
					CHANNELS 3 Zrotation Yrotation Xrotation
					JOINT upperneck
					{
						OFFSET -0.054170 1.746240 0.172020
						CHANNELS 3 Zrotation Yrotation Xrotation
						JOINT head
						{
							OFFSET 0.104070 1.761360 -0.123970
							CHANNELS 3 Zrotation Yrotation Xrotation
							End Site
							{
								OFFSET 0.000000 0.000000 0.000000
							}
						}
					}
				}
				JOINT lclavicle
				{
					OFFSET 0.000000 0.000000 0.000000
					CHANNELS 3 Zrotation Yrotation Xrotation
					JOINT lhumerus
					{
						OFFSET 3.362410 1.200890 -0.311210
						CHANNELS 3 Zrotation Yrotation Xrotation
						JOINT lradius
						{
							OFFSET 4.983000 -0.000000 -0.000000
							CHANNELS 3 Zrotation Yrotation Xrotation
							JOINT lwrist
							{
								OFFSET 3.483560 -0.000000 -0.000000
								CHANNELS 3 Zrotation Yrotation Xrotation
								JOINT lhand
								{
									OFFSET 0.000000 0.000000 0.000000
									CHANNELS 3 Zrotation Yrotation Xrotation
									JOINT lfingers
									{
										OFFSET 0.715260 -0.000000 -0.000000
										CHANNELS 3 Zrotation Yrotation Xrotation
										End Site
										{
											OFFSET 0.000000 0.000000 0.000000
										}
									}
								}
								JOINT lthumb
								{
									OFFSET 0.000000 0.000000 0.000000
									CHANNELS 3 Zrotation Yrotation Xrotation
									End Site
									{
										OFFSET 0.000000 0.000000 0.000000
									}
								}
							}
						}
					}
				}
				JOINT rclavicle
				{
					OFFSET 0.000000 0.000000 0.000000
					CHANNELS 3 Zrotation Yrotation Xrotation
					JOINT rhumerus
					{
						OFFSET -3.136600 1.374050 -0.404650
						CHANNELS 3 Zrotation Yrotation Xrotation
						JOINT rradius
						{
							OFFSET -5.241900 -0.000000 -0.000000
							CHANNELS 3 Zrotation Yrotation Xrotation
							JOINT rwrist
							{
								OFFSET -3.444170 -0.000000 -0.000000
								CHANNELS 3 Zrotation Yrotation Xrotation
								JOINT rhand
								{
									OFFSET 0.000000 0.000000 0.000000
									CHANNELS 3 Zrotation Yrotation Xrotation
									JOINT rfingers
									{
										OFFSET -0.622530 -0.000000 -0.000000
										CHANNELS 3 Zrotation Yrotation Xrotation
										End Site
										{
											OFFSET 0.000000 0.000000 0.000000
										}
									}
								}
								JOINT rthumb
								{
									OFFSET 0.000000 0.000000 0.000000
									CHANNELS 3 Zrotation Yrotation Xrotation
									End Site
									{
										OFFSET 0.000000 0.000000 0.000000
									}
								}
							}
						}
					}
				}
			}
		}
	}
}
MOTION
Frames: 7
Frame Time: 0.008333
-19.733674 18.740127 -0.666879 -12.491531 -84.146841 14.345778 3.517762 2.827181 -0.210231 -19.702254 -2.206316 -18.069780 1.284496 7.921686 25.273825 2.760632 -9.435703 16.851599 0.002500 -0.319700 -0.878500 -7.661522 -3.658460 -2.435802 25.192852 4.088091 -4.457306 -4.582766 -10.115482 32.491916 -0.286733 22.306371 -3.019860 -0.254500 3.245600 -8.963300 -4.285003 5.979414 1.575777 -1.136916 8.508454 -1.714000 -4.060984 4.404630 11.390388 -2.111970 -8.220348 -11.142514 4.015437 -11.678666 28.651151 -0.664300 -5.100500 5.456600 0.558390 -4.863090 5.011265 -75.620667 -7.314459 30.118853 24.606393 -41.171895 -7.495954 0.714971 2.418469 9.470315 25.867367 -4.976893 -3.718900 -7.125000 0.000000 0.000000 -0.886600 21.349800 0.503000 4.035488 5.956176 3.721949 40.192422 42.594095 42.022144 -33.539941 37.649789 -7.865790 -1.153202 -3.234718 0.582078 -20.334860 10.587420 -4.897000 7.125000 0.000000 0.000000 5.572600 -15.046800 3.953900 
-19.755729 18.739546 -0.679551 -11.456089 -83.941511 13.331014 3.504712 2.850678 -0.193713 -19.717427 -2.275077 -18.012848 1.270111 7.913178 25.237552 2.789677 -9.650596 16.863994 0.003100 -0.360700 -0.990900 -7.690345 -3.621520 -2.449478 25.201857 4.400194 -4.321502 -4.541954 -10.030489 32.232364 -0.272823 22.518605 -3.060961 -0.248500 3.208000 -8.858300 -4.337208 5.960892 1.484622 -1.121884 8.496009 -1.707499 -3.899600 4.394892 11.454945 -2.219204 -8.239023 -11.166543 4.051584 -11.713488 28.685298 -0.637600 -5.122100 5.476300 0.582548 -4.875781 5.014465 -75.724072 -7.167842 30.311844 24.393612 -41.052767 -7.403778 0.729620 2.406254 9.747231 25.875137 -5.094325 -3.770900 -7.125000 0.000000 0.000000 -0.889000 21.229100 0.506900 4.040623 5.963449 3.712067 40.111759 42.268565 42.012918 -33.604433 37.834201 -7.962247 -1.174867 -3.234000 0.755394 -20.771914 10.765823 -5.081700 7.125000 0.000000 0.000000 5.288400 -14.797600 3.778800 
-19.776043 18.738869 -0.692900 -10.939372 -83.722982 12.849818 3.497505 2.858954 -0.189029 -19.682833 -2.325893 -17.986500 1.256972 7.904832 25.206643 2.819300 -9.860970 16.911461 0.003400 -0.374900 -1.030000 -7.713761 -3.599871 -2.452661 25.243408 4.714482 -4.213974 -4.500137 -9.952574 31.983358 -0.248397 22.758377 -2.981977 -0.230100 3.087500 -8.522500 -4.324917 5.947297 1.360442 -1.106828 8.491910 -1.696105 -3.767764 4.389524 11.568507 -2.259658 -8.267843 -11.225364 4.082223 -11.758369 28.697298 -0.629700 -5.143300 5.484000 0.608873 -4.869846 5.019624 -75.796070 -7.091484 30.514368 24.119599 -40.880906 -7.287790 0.745166 2.389564 10.034191 25.897846 -5.201316 -3.818500 -7.125000 0.000000 0.000000 -0.881100 21.123400 0.504400 4.057142 5.960635 3.690768 39.996139 42.025755 41.958612 -33.581908 37.955836 -8.019992 -1.208692 -3.221223 0.928390 -21.144700 11.047781 -5.280200 7.125000 0.000000 0.000000 5.061900 -14.458300 3.652300 
-19.795680 18.738095 -0.705959 -10.273614 -83.513131 12.205447 3.490066 2.870684 -0.179282 -19.663383 -2.434932 -17.923563 1.246597 7.897762 25.180552 2.839790 -10.011118 16.945530 0.002600 -0.327400 -0.899700 -7.736809 -3.572002 -2.459051 25.270677 5.038044 -4.067871 -4.460411 -9.873795 31.737056 -0.230154 22.977226 -2.973727 -0.231700 3.098200 -8.552200 -4.310480 5.936499 1.265416 -1.094763 8.486456 -1.688936 -3.666271 4.387369 11.640457 -2.315050 -8.284166 -11.236887 4.125139 -11.793353 28.687204 -0.607800 -5.162900 5.477100 0.628346 -4.876009 5.026033 -75.810872 -6.983243 30.766328 23.833662 -40.684880 -7.163690 0.758800 2.371394 10.250110 25.895929 -5.299266 -3.855900 -7.125000 0.000000 0.000000 -0.891700 21.032900 0.512300 4.066123 5.960308 3.671491 39.879906 41.802932 41.977518 -33.538978 38.041324 -8.062016 -1.239155 -3.211995 0.904943 -21.486959 11.357415 -5.481500 7.125000 0.000000 0.000000 4.864300 -14.092500 3.546500 
-19.813092 18.735193 -0.719502 -9.866146 -83.300371 11.824682 3.485651 2.876143 -0.177693 -19.626746 -2.484696 -17.901179 1.237009 7.895243 25.168921 2.869662 -10.243866 16.954490 0.004000 -0.410900 -1.129000 -7.757588 -3.549442 -2.464816 25.313338 5.355402 -3.927524 -4.420150 -9.799304 31.498364 -0.203609 23.232505 -2.893334 -0.217100 2.999400 -8.277000 -4.278744 5.907414 1.150687 -1.075696 8.459432 -1.675811 -3.530299 4.369394 11.754803 -2.357907 -8.307358 -11.295283 4.118185 -11.810726 28.685467 -0.611400 -5.171800 5.476300 0.657562 -4.864353 5.032912 -75.887051 -6.917419 30.951021 23.509201 -40.464025 -7.023076 0.766135 2.356436 10.509340 25.780119 -5.325783 -3.840800 -7.125000 0.000000 0.000000 -0.975600 21.030300 0.560600 4.084036 5.960286 3.635034 39.721094 41.665154 41.998483 -33.459403 38.095011 -8.081076 -1.277549 -3.190681 0.899646 -21.758877 11.742992 -5.685900 7.125000 0.000000 0.000000 4.724300 -13.667300 3.486400 
-19.829536 18.732388 -0.733818 -9.104995 -83.098000 11.083359 3.478882 2.891345 -0.162636 -19.628034 -2.586971 -17.876358 1.229419 7.897557 25.170033 2.894286 -10.423135 17.018296 0.002700 -0.335400 -0.921700 -7.776717 -3.515352 -2.475653 25.309209 5.656409 -3.754873 -4.381917 -9.721400 31.258563 -0.181822 23.468671 -2.876712 -0.224500 3.049600 -8.416800 -4.282608 5.897594 1.061763 -1.062497 8.455361 -1.674439 -3.406429 4.365191 11.779795 -2.418161 -8.309755 -11.239108 4.162243 -11.827864 28.658749 -0.586000 -5.183500 5.445300 0.693572 -4.877864 5.037581 -75.988467 -6.766981 31.124370 23.153778 -40.210450 -6.868457 0.773221 2.341446 10.830152 25.630221 -5.327203 -3.808300 -7.125000 0.000000 0.000000 -1.081200 21.058200 0.620600 4.085826 5.965855 3.623519 39.618839 41.483526 42.003108 -33.378011 38.136246 -8.096202 -1.326705 -3.164614 0.836391 -21.938402 12.233795 -5.896200 7.125000 0.000000 0.000000 4.663400 -13.149200 3.492100 
-19.844046 18.729873 -0.748812 -8.573986 -82.881340 10.590481 3.474815 2.899577 -0.151326 -19.610093 -2.672313 -17.887883 1.223487 7.902023 25.178540 2.919103 -10.614365 17.054204 0.002900 -0.345400 -0.949000 -7.794742 -3.491261 -2.476389 25.323594 5.963880 -3.612123 -4.346304 -9.649929 31.035002 -0.161429 23.693169 -2.871001 -0.231100 3.093900 -8.540400 -4.235317 5.907031 0.947864 -1.057210 8.477873 -1.673907 -3.363813 4.378795 11.820370 -2.366260 -8.334641 -11.172419 4.210186 -11.883329 28.611051 -0.582500 -5.207500 5.388700 0.729624 -4.877309 5.040031 -76.038400 -6.643407 31.325962 22.749860 -39.897598 -6.684469 0.775185 2.319423 11.281477 25.341741 -5.275735 -3.723800 -7.125000 0.000000 0.000000 -1.278400 21.166900 0.730700 4.093196 5.966281 3.622945 39.548607 41.324146 41.952401 -33.252764 38.143034 -8.099193 -1.366050 -3.148601 0.719266 -22.169082 12.657867 -6.106500 7.125000 0.000000 0.000000 4.562000 -12.683300 3.460300 
